<?xml version="1.0" ?><svg data-name="图层 1" id="图层_1" viewBox="0 0 500 500" xmlns="http://www.w3.org/2000/svg"><defs><style>.cls-1{fill:none;}.cls-2{fill:#231815;}</style></defs><title/><path class="cls-1" d="M287.91,368.88l-15.85,32.19,35.48-35.77H288.77A8.39,8.39,0,0,1,287.91,368.88Z"/><path class="cls-1" d="M236.74,235.3A82.26,82.26,0,0,1,316,204.82a76.19,76.19,0,0,1,10.36,2.59,82.66,82.66,0,0,0-64.92-68.08c-33.28-6.74-68.23,8.91-85.76,37.86a83,83,0,0,0-4.39,76.63A71.06,71.06,0,0,1,236.74,235.3Z"/><path class="cls-2" d="M171.25,253.81a83,83,0,0,1,4.39-76.63c17.54-28.95,52.48-44.6,85.76-37.86a82.66,82.66,0,0,1,64.92,68.08,78.27,78.27,0,0,1,15.84,7.19,98,98,0,0,0-63.86-86.09c-37.69-13.82-81.9-1.62-107.27,29.43-25,30.58-29.25,74.26-10,108.75A67.71,67.71,0,0,1,171.25,253.81Z"/><path class="cls-2" d="M253.07,94.72V61.07c0-9.65-15-9.67-15,0V94.72C238.07,104.37,253.07,104.39,253.07,94.72Zm-7.5-33.65v0Z"/><path class="cls-2" d="M176.66,115.24c4.83,8.36,17.79.81,13-7.57L172.79,78.52c-4.83-8.36-17.79-.81-13,7.57Zm6.48-3.79L166.31,82.3Z"/><path class="cls-2" d="M104.51,146.8l29.15,16.83c8.38,4.84,15.94-8.12,7.57-13l-29.15-16.83C103.7,129,96.14,142,104.51,146.8Zm32.93,10.35-29.15-16.83Z"/><path class="cls-2" d="M120.71,227.08c9.65,0,9.67-15,0-15H87.06c-9.65,0-9.67,15,0,15Zm0-7.5h0Z"/><path class="cls-2" d="M112.08,305.31l29.15-16.83c8.36-4.83.81-17.79-7.57-13l-29.15,16.83C96.15,297.18,103.69,310.15,112.08,305.31ZM137.44,282l-29.15,16.83Z"/><path class="cls-2" d="M370.42,227.08h33.65c9.65,0,9.67-15,0-15H370.42C360.77,212.08,360.75,227.08,370.42,227.08Zm0-7.5h0Z"/><path class="cls-2" d="M357.48,163.63l29.15-16.83c8.36-4.83.81-17.79-7.57-13l-29.15,16.83C341.55,155.5,349.1,168.47,357.48,163.63Zm25.36-23.3L353.7,157.15Z"/><path class="cls-2" d="M314.47,115.24,331.3,86.09c4.84-8.38-8.12-15.94-13-7.57l-16.83,29.15C296.68,116,309.64,123.6,314.47,115.24ZM324.82,82.3,308,111.45Z"/><path class="cls-2" d="M158.31,303.06a61.94,61.94,0,0,1,7.23-29.11c-1-1.44-1.95-2.9-2.86-4.4-.57-.94-1.12-1.9-1.65-2.86q-.81,1.33-1.57,2.71c-15.16,27.65-9.62,63.37,13.66,84.79a70.91,70.91,0,0,0,47.42,18.61c4.86.05,7.27-3.72,7.24-7.5h-7.24A62.23,62.23,0,0,1,158.31,303.06Z"/><path class="cls-2" d="M220.54,240.83a62.15,62.15,0,0,1,19.18,3,73.75,73.75,0,0,1,87.48-28.16,82.09,82.09,0,0,0-.89-8.28A76.19,76.19,0,0,0,316,204.82a82.26,82.26,0,0,0-79.21,30.48c1.67.38,3.33.81,5,1.32l-8.47,3.45q1.67-2.46,3.49-4.77a71.06,71.06,0,0,0-65.49,18.51,78.57,78.57,0,0,0,3.61,7A62.06,62.06,0,0,1,220.54,240.83Z"/><path class="cls-2" d="M378.77,260.84c-.46-1.45-1-2.87-1.51-4.28-1.23-.35-2.47-.68-3.73-1Z"/><path class="cls-2" d="M377.25,256.56c.54,1.41,1,2.84,1.51,4.28l-5.24-5.24c1.26.27,2.5.6,3.73,1a83.68,83.68,0,0,0-35.1-42c.1,1.65.17,3.31.18,5,0,1.3-.05,2.6-.12,3.89a73.86,73.86,0,0,1,29.32,39.37A51.75,51.75,0,0,1,361.19,365.3H354c0,3.78,2.36,7.56,7.24,7.5A59.9,59.9,0,0,0,420,320.46C423.52,291.7,404.68,264.44,377.25,256.56Z"/><path class="cls-2" d="M241.72,236.62c-1.65-.51-3.31-.94-5-1.32q-1.82,2.31-3.49,4.77Z"/><path class="cls-2" d="M328.18,216.07a73.42,73.42,0,0,1,13.39,7,7.44,7.44,0,0,0,.77-3.46C342.4,211.29,331.35,210.12,328.18,216.07Z"/><path class="cls-2" d="M327.21,215.69l1,.38c3.17-6,14.22-4.79,14.15,3.5,0-1.67-.08-3.33-.18-5a78.27,78.27,0,0,0-15.84-7.19A82.09,82.09,0,0,1,327.21,215.69Z"/><path class="cls-2" d="M165.54,273.95a62.38,62.38,0,0,1,9.32-13.13,78.57,78.57,0,0,1-3.61-7A67.71,67.71,0,0,0,161,266.69c.54,1,1.08,1.91,1.65,2.86C163.59,271,164.56,272.51,165.54,273.95Z"/><path class="cls-2" d="M342.22,223.47c.06-1.29.11-2.59.12-3.89a7.44,7.44,0,0,1-.77,3.46Z"/><path class="cls-2" d="M412.94,313.55a51.77,51.77,0,0,0-41.41-50.71,73.86,73.86,0,0,0-29.32-39.37q-.21,4.42-.82,8.77a66.85,66.85,0,0,1,22.91,32.59,7.54,7.54,0,0,0,5.24,5.24c22.53,4.89,38.5,25.75,35.61,49-2.74,22.09-22,38.41-44,38.7-4.78.06-7.2,3.78-7.24,7.5h7.24A51.75,51.75,0,0,0,412.94,313.55Z"/><path class="cls-2" d="M193.3,255.58c13.58-7.83,29.54-9.09,44.43-4.49,3.34,1,6.63-.74,8.47-3.45,14.65-21.54,41.42-33.14,67.15-28.1a66.87,66.87,0,0,1,13.82,4.31c.09-1.42.15-2.84.16-4.27s-.06-2.6-.13-3.88a73.75,73.75,0,0,0-87.48,28.16,62.23,62.23,0,0,0-64.87,17,77.22,77.22,0,0,0,4.29,6.55A54.16,54.16,0,0,1,193.3,255.58Z"/><path class="cls-2" d="M220.54,357.8c-24.5-.27-46.36-16.6-52.84-40.4a54.61,54.61,0,0,1,3-36.61q-2.71-3.29-5.14-6.84a62.23,62.23,0,0,0,55,91.35h7.24C227.75,361.57,225.34,357.85,220.54,357.8Z"/><path class="cls-2" d="M329.75,225q1.46.71,2.88,1.48c3.34.91,7.3-.25,8.93-3.48a73.42,73.42,0,0,0-13.39-7,7.48,7.48,0,0,0-.85,3.5A7,7,0,0,0,329.75,225Z"/><path class="cls-2" d="M174.86,260.82a62.38,62.38,0,0,0-9.32,13.13q2.43,3.55,5.14,6.84a55.65,55.65,0,0,1,8.47-13.42A77.22,77.22,0,0,1,174.86,260.82Z"/><path class="cls-2" d="M328.18,216.07l-1-.38c.07,1.29.12,2.58.13,3.88A7.48,7.48,0,0,1,328.18,216.07Z"/><path class="cls-2" d="M327.33,219.58c0,1.43-.07,2.85-.16,4.27q1.3.57,2.57,1.18A7,7,0,0,1,327.33,219.58Z"/><path class="cls-2" d="M332.63,226.52a67.18,67.18,0,0,1,8.76,5.72q.61-4.34.82-8.77l-.65-.43C339.93,226.27,336,227.43,332.63,226.52Z"/><path class="cls-2" d="M244.27,446.36a6.16,6.16,0,0,0,6.86-2.88l-.75.76A6.81,6.81,0,0,1,244.27,446.36Z"/><path class="cls-2" d="M238.6,435.15l.09-.18c-3.1,4.78.79,10.6,5.58,11.4C239.88,445.39,236,440.47,238.6,435.15Z"/><path class="cls-2" d="M251.7,421.59l20.35-20.52,15.85-32.19a8.39,8.39,0,0,0,.86-3.58H277.25l4.19,7.3h-12L238.69,435a8.34,8.34,0,0,1,1.08-1.33Z"/><path class="cls-2" d="M272.06,401.07l-20.51,41.65q-.2.4-.42.76l77.54-78.18H307.53Z"/><path class="cls-2" d="M272.06,401.07,251.7,421.59l-11.94,12a8.34,8.34,0,0,0-1.08,1.33l-.09.18c-2.62,5.32,1.29,10.24,5.67,11.22a6.81,6.81,0,0,0,6.11-2.13l.75-.76q.22-.36.42-.76Z"/><path class="cls-2" d="M277.25,365.3H273l-3.59,7.3h12Z"/><path class="cls-2" d="M259.37,365.3l-2.1,3.58-2.06-3.58H243.33a7.59,7.59,0,0,0,7.46,7.3h18.6l3.59-7.3Z"/><path class="cls-2" d="M259.37,365.3h-4.15l2.06,3.58Z"/><path class="cls-2" d="M345.38,348.44c4.57-4.6,1.22-12.8-5.3-12.8h-18l-7.56,11.29L308,335.63h14l12.06-18c3.23-4.82-1.06-11.29-6.48-11.29-12.94,0-25.95-.38-38.9-.17a92.75,92.75,0,0,1-15.9,6.27c-1,1.58-1.85,3.31-2.83,5l-14.89,25.42-10.81,18.45a7.21,7.21,0,0,0-1,4h11.88l-4.42-7.7h13.09l21.24-36.25h-4.3l6.48-3.71-2.18,3.71h28.49l7.56-11.29,6.48,11.29h-14l-12.06,18c-3.23,4.82,1.06,11.29,6.48,11.29h14l12.7-12.8,5.3,12.8h-18L307.53,365.3h21.13l4.79-4.83Z"/><path class="cls-2" d="M334.78,337.83l-12.7,12.8h18Z"/><path class="cls-2" d="M321.18,310.06l-7.56,11.29h14Z"/><path class="cls-2" d="M263.89,357.59H250.8l4.42,7.7h4.15Z"/><path class="cls-2" d="M273,365.3h4.25l-2.29-4Z"/><path class="cls-2" d="M273,365.3l2-4,2.29,4h11.52a7.3,7.3,0,0,0-7.33-7.7H263.89l-4.51,7.7Z"/><path class="cls-2" d="M280.83,321.35h4.3l2.18-3.71Z"/><path class="cls-2" d="M314.51,346.92l7.56-11.29H308Z"/><path class="cls-2" d="M272.86,312.45a92.75,92.75,0,0,0,15.9-6.27c-2.27,0-4.55.09-6.82.17C277.31,306.51,274.88,309.16,272.86,312.45Z"/></svg>